<svg xmlns="http://www.w3.org/2000/svg" xmlns:xlink="http://www.w3.org/1999/xlink" width="1024" zoomAndPan="magnify" viewBox="0 0 768 767.999994" height="1024" preserveAspectRatio="xMidYMid meet" version="1.0"><defs><clipPath id="af3d0cdce5"><path d="M 125 213.480469 L 181.394531 213.480469 L 181.394531 307.144531 L 125 307.144531 Z M 125 213.480469 " clip-rule="nonzero"/></clipPath><clipPath id="501d74c90d"><path d="M 181.050781 237.675781 C 170.476562 266.101562 166.949219 273.074219 165.148438 278.175781 C 163.949219 281.625 164.023438 285.226562 162.75 287.101562 C 162 288.226562 160.875 288.898438 159.898438 289.125 C 159 289.273438 157.875 288.898438 157.199219 288.523438 C 156.675781 288.226562 156.300781 287.699219 156 287.175781 C 155.699219 286.648438 155.550781 286.199219 155.550781 285.375 C 155.476562 283.800781 156.074219 281.324219 156.898438 277.949219 C 158.625 270.523438 165.074219 253.726562 167.25 242.625 C 169.199219 233.101562 168.75 218.625 170.324219 215.476562 C 170.699219 214.648438 171 214.5 171.601562 214.199219 C 172.273438 213.898438 173.476562 213.601562 174.300781 213.824219 C 175.125 213.976562 176.023438 214.648438 176.550781 215.25 C 177 215.699219 177.226562 216.074219 177.300781 216.898438 C 177.375 219.226562 175.050781 225.074219 173.101562 230.476562 C 170.175781 238.800781 165.300781 250.5 160.425781 261.675781 C 154.648438 275.023438 142.949219 300.824219 140.25 305.023438 C 139.800781 305.851562 139.648438 306 139.199219 306.375 C 138.601562 306.75 137.550781 307.125 136.726562 306.976562 C 135.824219 306.824219 134.476562 306 134.023438 305.175781 C 133.574219 304.5 133.574219 303.824219 133.648438 302.699219 C 133.875 299.773438 136.125 293.625 138.226562 287.851562 C 141.226562 279.523438 147.675781 266.925781 151.050781 257.476562 C 153.824219 249.675781 155.699219 238.800781 157.425781 235.574219 C 157.949219 234.523438 158.324219 234.074219 158.925781 233.699219 C 159.601562 233.324219 160.648438 233.175781 161.324219 233.398438 C 162.074219 233.550781 162.898438 234.074219 163.351562 234.675781 C 163.800781 235.273438 164.101562 235.949219 164.023438 237 C 163.875 239.851562 160.726562 246 158.023438 251.550781 C 154.050781 259.726562 146.25 273.375 141.824219 280.648438 C 139.050781 285.300781 136.726562 288.976562 134.699219 291.675781 C 133.351562 293.324219 132.375 294.824219 131.25 295.574219 C 130.425781 296.175781 129.675781 296.550781 128.925781 296.550781 C 128.101562 296.550781 127.125 296.324219 126.523438 295.726562 C 125.851562 295.050781 125.398438 294.375 125.25 292.648438 C 124.875 285.75 136.949219 244.199219 140.476562 237.898438 C 141.375 236.398438 141.898438 235.800781 142.800781 235.5 C 143.773438 235.125 145.351562 235.425781 146.175781 236.023438 C 146.925781 236.625 147.601562 238.050781 147.601562 239.023438 C 147.523438 240.074219 146.699219 241.425781 145.800781 241.949219 C 144.976562 242.476562 143.398438 242.550781 142.5 242.175781 C 141.601562 241.726562 140.550781 240.449219 140.398438 239.476562 C 140.25 238.5 140.773438 236.925781 141.523438 236.25 C 142.199219 235.574219 143.851562 235.199219 144.75 235.351562 C 145.5 235.425781 146.25 235.949219 146.699219 236.550781 C 147.226562 237.300781 147.523438 238.125 147.449219 239.851562 C 147.300781 245.625 139.5 269.324219 136.726562 277.949219 C 135.300781 282.375 133.949219 284.925781 133.125 287.925781 C 132.449219 290.476562 132.824219 293.550781 131.773438 294.976562 C 131.101562 295.949219 129.898438 296.550781 128.925781 296.550781 C 127.949219 296.625 126.523438 295.875 125.925781 295.125 C 125.398438 294.300781 125.101562 292.875 125.476562 291.824219 C 125.851562 290.476562 127.648438 289.574219 129 287.925781 C 131.023438 285.300781 133.425781 281.25 135.898438 277.199219 C 139.050781 272.175781 142.574219 266.398438 145.949219 260.023438 C 149.851562 252.523438 155.175781 237.976562 157.726562 234.824219 C 158.550781 233.925781 159 233.625 159.75 233.398438 C 160.425781 233.175781 161.476562 233.398438 162.148438 233.625 C 162.675781 233.851562 163.050781 234.226562 163.351562 234.675781 C 163.726562 235.273438 164.023438 235.949219 164.023438 237 C 164.101562 239.550781 162.148438 245.773438 160.949219 249.75 C 159.898438 253.425781 159 255.824219 157.351562 260.175781 C 154.574219 267.601562 147.898438 281.851562 144.898438 290.101562 C 142.800781 295.875 141.523438 302.851562 140.25 305.023438 C 139.875 305.773438 139.648438 306 139.199219 306.375 C 138.601562 306.75 137.550781 307.125 136.726562 306.976562 C 135.824219 306.824219 134.476562 306 134.023438 305.175781 C 133.574219 304.351562 133.574219 303.601562 133.949219 301.875 C 135.523438 294.300781 154.425781 258.523438 160.800781 242.476562 C 165.074219 231.824219 167.773438 219 170.324219 215.476562 C 171.074219 214.425781 171.75 214.125 172.425781 213.898438 C 173.023438 213.675781 173.699219 213.675781 174.300781 213.824219 C 174.824219 213.898438 175.425781 214.125 175.949219 214.574219 C 176.476562 215.101562 177 215.625 177.300781 216.898438 C 178.125 221.023438 176.101562 234.523438 174.226562 244.648438 C 171.75 257.398438 166.273438 282.074219 162.75 287.101562 C 161.773438 288.523438 160.726562 288.898438 159.898438 289.125 C 159.226562 289.273438 158.625 289.199219 158.023438 288.898438 C 157.351562 288.601562 156.375 287.925781 156 287.175781 C 155.625 286.425781 155.550781 285.601562 155.625 284.476562 C 155.851562 282.300781 157.351562 278.925781 158.625 275.398438 C 160.5 270.375 163.574219 263.699219 165.976562 257.25 C 168.675781 250.050781 171.523438 237.300781 173.851562 234.074219 C 174.675781 233.023438 175.351562 232.648438 176.175781 232.425781 C 177.074219 232.199219 178.199219 232.273438 179.023438 232.726562 C 179.851562 233.101562 180.675781 234 180.976562 234.824219 C 181.273438 235.648438 181.050781 237.675781 181.050781 237.675781 " clip-rule="nonzero"/></clipPath><clipPath id="b9dac6a65f"><path d="M 384 0 C 171.921875 0 0 171.921875 0 384 C 0 596.078125 171.921875 768 384 768 C 596.078125 768 768 596.078125 768 384 C 768 171.921875 596.078125 0 384 0 Z M 384 0 " clip-rule="nonzero"/></clipPath></defs><g clip-path="url(#af3d0cdce5)"><g clip-path="url(#501d74c90d)"><path fill="#18d860" d="M 122.25 210.824219 L 184.050781 210.824219 L 184.050781 310.042969 L 122.25 310.042969 Z M 122.25 210.824219 " fill-opacity="1" fill-rule="nonzero"/></g></g><g clip-path="url(#b9dac6a65f)"><rect x="-76.8" width="921.6" fill="#18d860" y="-76.799999" height="921.599993" fill-opacity="1"/></g><path stroke-linecap="round" transform="matrix(26.999997, 0, 0, 26.999997, 60.101726, 60.101743)" fill="none" stroke-linejoin="round" d="M 9.347941 14.652049 C 9.304538 14.608647 9.262292 14.564231 9.22106 14.518658 C 9.179827 14.47323 9.139752 14.426789 9.100834 14.379335 C 9.061772 14.331882 9.024011 14.28356 8.987553 14.234225 C 8.95095 14.184891 8.915649 14.134688 8.881505 14.083762 C 8.847362 14.032692 8.81452 13.980753 8.782981 13.928236 C 8.751442 13.875574 8.721204 13.822188 8.692269 13.768079 C 8.663334 13.713826 8.635701 13.659138 8.609515 13.603583 C 8.583184 13.548027 8.558299 13.492038 8.534862 13.435325 C 8.51128 13.378612 8.489289 13.32132 8.4686 13.263594 C 8.447912 13.205724 8.42867 13.14742 8.410875 13.088681 C 8.392935 13.029943 8.376586 12.970915 8.361685 12.911309 C 8.346783 12.851847 8.333328 12.791951 8.32132 12.731766 C 8.309457 12.671436 8.298895 12.611106 8.289925 12.550342 C 8.280956 12.489578 8.273432 12.42867 8.267356 12.367616 C 8.26128 12.306563 8.256795 12.245365 8.253756 12.184023 C 8.250863 12.12268 8.249272 12.061337 8.249272 11.999995 C 8.249272 11.938652 8.250863 11.87731 8.253756 11.815967 C 8.256795 11.754624 8.26128 11.693426 8.267356 11.632373 C 8.273432 11.57132 8.280956 11.510411 8.289925 11.449647 C 8.298895 11.388884 8.309457 11.328554 8.32132 11.268224 C 8.333328 11.208039 8.346783 11.148287 8.361685 11.088681 C 8.376586 11.029074 8.392935 10.970047 8.410875 10.911308 C 8.42867 10.85257 8.447912 10.794265 8.4686 10.736395 C 8.489289 10.678669 8.51128 10.621378 8.534862 10.564665 C 8.558299 10.507952 8.583184 10.451962 8.609515 10.396407 C 8.635701 10.340996 8.663334 10.286164 8.692269 10.232055 C 8.721204 10.177801 8.751442 10.124416 8.782981 10.071754 C 8.81452 10.019236 8.847362 9.967298 8.881505 9.916372 C 8.915649 9.865301 8.95095 9.815099 8.987553 9.765764 C 9.024011 9.716574 9.061772 9.668108 9.100834 9.620654 C 9.139752 9.5732 9.179827 9.526759 9.22106 9.481331 C 9.262292 9.435903 9.304538 9.391343 9.347941 9.34794 M 14.65205 9.34794 C 14.695453 9.391343 14.737698 9.435903 14.778931 9.481331 C 14.820164 9.526759 14.860239 9.5732 14.899157 9.620654 C 14.938219 9.668108 14.97598 9.716574 15.012438 9.765764 C 15.049041 9.815099 15.084342 9.865301 15.118485 9.916372 C 15.152629 9.967298 15.18547 10.019236 15.21701 10.071754 C 15.248549 10.124416 15.278786 10.177801 15.307721 10.232055 C 15.336657 10.286164 15.36429 10.340996 15.390476 10.396407 C 15.416807 10.451962 15.441691 10.507952 15.465129 10.564665 C 15.488711 10.621378 15.510702 10.678669 15.53139 10.736395 C 15.552079 10.794265 15.571321 10.85257 15.589116 10.911308 C 15.607056 10.970047 15.623404 11.029074 15.638306 11.088681 C 15.653208 11.148287 15.666662 11.208039 15.678671 11.268224 C 15.690534 11.328554 15.701095 11.388884 15.710065 11.449647 C 15.719035 11.510411 15.726558 11.57132 15.732635 11.632373 C 15.738711 11.693426 15.743196 11.754624 15.746234 11.815967 C 15.749128 11.87731 15.750719 11.938652 15.750719 11.999995 C 15.750719 12.061337 15.749128 12.12268 15.746234 12.184023 C 15.743196 12.245365 15.738711 12.306563 15.732635 12.367616 C 15.726558 12.42867 15.719035 12.489578 15.710065 12.550342 C 15.701095 12.611106 15.690534 12.671436 15.678671 12.731766 C 15.666662 12.791951 15.653208 12.851847 15.638306 12.911309 C 15.623404 12.970915 15.607056 13.029943 15.589116 13.088681 C 15.571321 13.14742 15.552079 13.205724 15.53139 13.263594 C 15.510702 13.32132 15.488711 13.378612 15.465129 13.435325 C 15.441691 13.492038 15.416807 13.548027 15.390476 13.603583 C 15.36429 13.659138 15.336657 13.713826 15.307721 13.768079 C 15.278786 13.822188 15.248549 13.875574 15.21701 13.928236 C 15.18547 13.980753 15.152629 14.032692 15.118485 14.083762 C 15.084342 14.134688 15.049041 14.184891 15.012438 14.234225 C 14.97598 14.28356 14.938219 14.331882 14.899157 14.379335 C 14.860239 14.426789 14.820164 14.47323 14.778931 14.518658 C 14.737698 14.564231 14.695453 14.608647 14.65205 14.652049 M 7.226991 16.772999 C 7.148866 16.694874 7.072767 16.614868 6.998548 16.532981 C 6.924329 16.451239 6.852281 16.367617 6.782113 16.282113 C 6.71209 16.196755 6.644092 16.10966 6.578264 16.020973 C 6.512437 15.932287 6.448924 15.842009 6.387582 15.75014 C 6.326094 15.658271 6.267066 15.564955 6.210353 15.470192 C 6.153496 15.375429 6.099098 15.279364 6.047014 15.181997 C 5.994931 15.084486 5.945307 14.985817 5.897998 14.88599 C 5.850834 14.786164 5.805984 14.68518 5.763739 14.583184 C 5.721493 14.481042 5.681708 14.378033 5.644526 14.274011 C 5.607344 14.169989 5.572622 14.065099 5.540649 13.959486 C 5.50853 13.853728 5.479017 13.747246 5.452252 13.640186 C 5.425342 13.532981 5.401181 13.425197 5.379624 13.316835 C 5.358067 13.208473 5.33926 13.099677 5.323056 12.990446 C 5.306852 12.881216 5.293253 12.771552 5.282402 12.661598 C 5.271551 12.551644 5.263449 12.441546 5.258096 12.331158 C 5.252599 12.220915 5.249995 12.110527 5.249995 11.999995 C 5.249995 11.889462 5.252599 11.779075 5.258096 11.668832 C 5.263449 11.558444 5.271551 11.448345 5.282402 11.338392 C 5.293253 11.228438 5.306852 11.118774 5.323056 11.009543 C 5.33926 10.900313 5.358067 10.791517 5.379624 10.683154 C 5.401181 10.574792 5.425342 10.467008 5.452252 10.359804 C 5.479017 10.252743 5.50853 10.146262 5.540649 10.040504 C 5.572622 9.93489 5.607344 9.83 5.644526 9.725978 C 5.681708 9.621956 5.721493 9.518947 5.763739 9.416806 C 5.805984 9.314809 5.850834 9.213825 5.897998 9.113999 C 5.945307 9.014173 5.994931 8.915504 6.047014 8.817992 C 6.099098 8.720625 6.153496 8.62456 6.210353 8.529798 C 6.267066 8.435035 6.326094 8.341719 6.387582 8.24985 C 6.448924 8.15798 6.512437 8.067703 6.578264 7.979016 C 6.644092 7.89033 6.71209 7.803235 6.782113 7.717876 C 6.852281 7.632373 6.924329 7.54875 6.998548 7.467008 C 7.072767 7.385122 7.148866 7.305116 7.226991 7.226991 M 16.772999 7.226991 C 16.851124 7.305116 16.927224 7.385122 17.001443 7.467008 C 17.075661 7.54875 17.14771 7.632373 17.217878 7.717876 C 17.287901 7.803235 17.355899 7.89033 17.421726 7.979016 C 17.487554 8.067703 17.551067 8.15798 17.612409 8.24985 C 17.673897 8.341719 17.732924 8.435035 17.789782 8.529798 C 17.846495 8.62456 17.900893 8.720625 17.952976 8.817992 C 18.00506 8.915504 18.054684 9.014173 18.101993 9.113999 C 18.149157 9.213825 18.194007 9.314809 18.236252 9.416806 C 18.278497 9.518947 18.318283 9.621956 18.355465 9.725978 C 18.392647 9.83 18.427369 9.93489 18.459342 10.040504 C 18.49146 10.146262 18.520974 10.252743 18.547739 10.359804 C 18.574649 10.467008 18.59881 10.574792 18.620367 10.683154 C 18.641923 10.791517 18.660731 10.900313 18.676935 11.009543 C 18.693139 11.118774 18.706738 11.228438 18.717589 11.338392 C 18.728439 11.448345 18.736541 11.558444 18.741894 11.668832 C 18.747392 11.779075 18.749996 11.889462 18.749996 11.999995 C 18.749996 12.110527 18.747392 12.220915 18.741894 12.331158 C 18.736541 12.441546 18.728439 12.551644 18.717589 12.661598 C 18.706738 12.771552 18.693139 12.881216 18.676935 12.990446 C 18.660731 13.099677 18.641923 13.208473 18.620367 13.316835 C 18.59881 13.425197 18.574649 13.532981 18.547739 13.640186 C 18.520974 13.747246 18.49146 13.853728 18.459342 13.959486 C 18.427369 14.065099 18.392647 14.169989 18.355465 14.274011 C 18.318283 14.378033 18.278497 14.481042 18.236252 14.583184 C 18.194007 14.68518 18.149157 14.786164 18.101993 14.88599 C 18.054684 14.985817 18.00506 15.084486 17.952976 15.181997 C 17.900893 15.279364 17.846495 15.375429 17.789782 15.470192 C 17.732924 15.564955 17.673897 15.658271 17.612409 15.75014 C 17.551067 15.842009 17.487554 15.932287 17.421726 16.020973 C 17.355899 16.10966 17.287901 16.196755 17.217878 16.282113 C 17.14771 16.367617 17.075661 16.451239 17.001443 16.532981 C 16.927224 16.614868 16.851124 16.694874 16.772999 16.772999 M 5.106042 18.893948 C 1.298026 15.086945 1.298026 8.914057 5.106042 5.106041 M 18.893949 5.106041 C 22.701964 8.913044 22.701964 15.085933 18.893949 18.893948 M 11.999995 11.999995 L 12.007953 11.999995 L 12.007953 12.007952 L 11.999995 12.007952 Z M 12.374995 11.999995 C 12.374995 12.02459 12.372536 12.04904 12.367762 12.073201 C 12.362987 12.097362 12.355898 12.120799 12.346494 12.143513 C 12.33709 12.166227 12.325516 12.187929 12.311772 12.208328 C 12.298172 12.228872 12.282547 12.24768 12.265186 12.265186 C 12.247681 12.282547 12.228873 12.298172 12.208329 12.311771 C 12.187929 12.325516 12.166228 12.33709 12.143514 12.346494 C 12.1208 12.355898 12.097362 12.362987 12.073201 12.367761 C 12.049041 12.372535 12.02459 12.374995 11.999995 12.374995 C 11.9754 12.374995 11.95095 12.372535 11.926789 12.367761 C 11.902628 12.362987 11.879191 12.355898 11.856477 12.346494 C 11.833763 12.33709 11.812061 12.325516 11.791662 12.311771 C 11.771118 12.298172 11.75231 12.282547 11.734804 12.265186 C 11.717443 12.24768 11.701818 12.228872 11.688219 12.208328 C 11.674475 12.187929 11.6629 12.166227 11.653496 12.143513 C 11.644093 12.120799 11.637003 12.097362 11.632229 12.073201 C 11.627455 12.04904 11.624995 12.02459 11.624995 11.999995 C 11.624995 11.9754 11.627455 11.95095 11.632229 11.926789 C 11.637003 11.902628 11.644093 11.87919 11.653496 11.856476 C 11.6629 11.833762 11.674475 11.812061 11.688219 11.791661 C 11.701818 11.771117 11.717443 11.75231 11.734804 11.734804 C 11.75231 11.717443 11.771118 11.701818 11.791662 11.688218 C 11.812061 11.674474 11.833763 11.6629 11.856477 11.653496 C 11.879191 11.644092 11.902628 11.637003 11.926789 11.632228 C 11.95095 11.627454 11.9754 11.624995 11.999995 11.624995 C 12.02459 11.624995 12.049041 11.627454 12.073201 11.632228 C 12.097362 11.637003 12.1208 11.644092 12.143514 11.653496 C 12.166228 11.6629 12.187929 11.674474 12.208329 11.688218 C 12.228873 11.701818 12.247681 11.717443 12.265186 11.734804 C 12.282547 11.75231 12.298172 11.771117 12.311772 11.791661 C 12.325516 11.812061 12.33709 11.833762 12.346494 11.856476 C 12.355898 11.87919 12.362987 11.902628 12.367762 11.926789 C 12.372536 11.95095 12.374995 11.9754 12.374995 11.999995 Z M 12.374995 11.999995 " stroke="#000000" stroke-width="1.5" stroke-opacity="1" stroke-miterlimit="4"/></svg>